<svg width="517" height="717" viewBox="0 0 517 717" fill="none" xmlns="http://www.w3.org/2000/svg">
<path d="M218.473 478C218.473 453.333 222.473 431.667 230.473 413C238.473 394.333 248.806 377.667 261.473 363C274.139 348.333 287.473 334.667 301.473 322C316.139 309.333 329.806 297 342.473 285C355.139 273 365.473 260.333 373.473 247C381.473 233.667 385.473 218.667 385.473 202C385.473 174 374.139 151.333 351.473 134C328.806 116.667 298.473 108 260.473 108C223.806 108 191.806 114.667 164.473 128C137.806 141.333 115.473 160.333 97.4727 185L0.472656 122C28.4727 84 65.1393 54.3333 110.473 33C155.806 11 209.473 -3.8147e-05 271.473 -3.8147e-05C320.139 -3.8147e-05 362.806 7.3333 399.473 22C436.139 36 464.806 56.6666 485.473 84C506.139 110.667 516.473 143.333 516.473 182C516.473 208.667 512.139 232 503.473 252C495.473 272 484.806 289.667 471.473 305C458.806 319.667 445.139 333.667 430.473 347C415.806 359.667 401.806 372.333 388.473 385C375.806 397.667 365.473 411.333 357.473 426C349.473 440.667 345.473 458 345.473 478H218.473ZM282.473 717C259.139 717 239.806 709.333 224.473 694C209.806 678.667 202.473 660.333 202.473 639C202.473 617.667 209.806 599.667 224.473 585C239.806 569.667 259.139 562 282.473 562C305.806 562 324.806 569.667 339.473 585C354.139 599.667 361.473 617.667 361.473 639C361.473 660.333 354.139 678.667 339.473 694C324.806 709.333 305.806 717 282.473 717Z" fill="black" fill-opacity="0.05"/>
</svg>
